<?xml version="1.0" encoding="utf-8"?>
<!-- Generator: Adobe Illustrator 28.1.0, SVG Export Plug-In . SVG Version: 6.00 Build 0)  -->
<svg version="1.1" id="Camada_1" xmlns="http://www.w3.org/2000/svg" xmlns:xlink="http://www.w3.org/1999/xlink" x="0px" y="0px"
	 viewBox="0 0 320 320" style="enable-background:new 0 0 320 320;" xml:space="preserve">
<style type="text/css">
	.st0{fill-rule:evenodd;clip-rule:evenodd;fill:#8533AD;}
	.st1{fill-rule:evenodd;clip-rule:evenodd;fill:#DDDDDD;}
	.st2{fill-rule:evenodd;clip-rule:evenodd;fill:#6A298A;}
	.st3{fill-rule:evenodd;clip-rule:evenodd;fill:#660099;}
	.st4{opacity:0.2;fill-rule:evenodd;clip-rule:evenodd;fill:#8533AD;enable-background:new    ;}
	.st5{fill-rule:evenodd;clip-rule:evenodd;fill:#EF6497;}
	.st6{opacity:0.2;fill-rule:evenodd;clip-rule:evenodd;fill:#14001F;enable-background:new    ;}
	.st7{fill-rule:evenodd;clip-rule:evenodd;fill:#5D2479;}
</style>
<path class="st0" d="M162.8,28.4c0-14.6-11.9-26.4-26.5-26.4L36.5,2c-1.3,0-2.5,0.1-3.7,0.3l-6.3,0C11.8,2.3,0,14.2,0,28.8
	l0.1,262.6c0,14.6,11.9,26.4,26.5,26.4h109.9c14.6,0,26.4-12.2,26.4-26.8L162.8,28.4z"/>
<path class="st1" d="M134.4,13.8l-9.8,0c-1.6,0-2.9,1.3-2.9,2.9l0,4.1c0,3.1-2.5,5.7-5.7,5.7l-59.6,0c-3.1,0-5.7-2.5-5.7-5.7l0-4.1
	c0-1.6-1.3-2.9-2.9-2.9l-9.8,0c-10.8,0-19.5,8.8-19.5,19.5l0.1,252.9c0,10.8,8.8,19.5,19.5,19.5l96.2,0c10.8,0,19.5-8.8,19.5-19.5
	l-0.1-252.9C153.9,22.5,145.2,13.8,134.4,13.8z"/>
<path class="st2" d="M10,28.5l0.1,262.6c0,14.6,11.8,26.4,26.5,26.4l-10,0.3C12,317.8,0.1,306,0.1,291.4L0,28.8
	C0,14.2,11.8,2.3,26.4,2.3l6.3,0C19.9,4.1,10,15.1,10,28.5z M101.1,16.4l-2.1,0c-0.4,0-0.8,0.3-0.8,0.8s0.3,0.8,0.8,0.8l2.1,0
	c0.4,0,0.8-0.3,0.8-0.8C101.9,16.7,101.5,16.4,101.1,16.4z M94.4,16.4l-16.8,0c-0.4,0-0.8,0.3-0.8,0.8c0,0.4,0.3,0.8,0.8,0.8l16.8,0
	c0.4,0,0.8-0.3,0.8-0.8C95.1,16.7,94.8,16.4,94.4,16.4z"/>
<path class="st3" d="M244.7,156.1h4.4c2.1,0,3.8-1.7,3.8-3.8v-42.2c0-2.1-1.7-3.8-3.8-3.8H69.9c-2.1,0-3.8,1.7-3.8,3.8v42.2
	c0,2.1,1.7,3.8,3.8,3.8h4.4V257c0,2.2,1.7,3.9,3.9,3.9h162.5c2.2,0,3.9-1.7,3.9-3.9V156.1z"/>
<path class="st4" d="M74.3,156.6V257c0,2.2,1.7,3.9,3.9,3.9h162.5c2.2,0,3.9-1.7,3.9-3.9V156.6H74.3z"/>
<path class="st5" d="M90.4,106.2h-0.2c-1.1-1.4-1.8-2.9-1.9-4.3c-0.1-0.7-0.1-1.5,0.1-2.2c1.8-7.4,12.2-22,19.6-21.1
	c3.1,0.4,6.1,0.9,8.9,1.7c-0.2-0.5-0.3-0.9-0.4-1.3c-0.7-2.5-0.7-5.3,0.3-7.1c0.3-0.7,0.7-1.3,1.3-1.8c5.5-5.2,22.1-12,28-7.2
	c6.5,5.3,11,11.6,14.1,18.1c3.7-5,8.7-9.9,15.2-13.7c4.6-2.6,15.3,3.9,18.5,8.2c0.3,0.4,0.5,0.8,0.6,1.2c0.6,1.4,0.3,3.4-0.5,5.2
	c-0.4,0.8-0.9,1.7-1.6,2.6c5.5-2,11.6-3.5,18.2-4c7.5-0.6,17.3,14.4,18.8,21.9c0.1,0.7,0.2,1.4,0.1,2.1c0,0.6-0.2,1.2-0.5,1.8h-0.1
	h-52.4v26.9v23.1v104.7h-34.3V156.2v-23.1v-26.9H90.4z"/>
<path class="st6" d="M146.2,62.9c6.5,5.3,11,11.6,14.1,18.1c-5,6.8-7.8,13.8-9.3,18.3c-7.7-7.1-19.1-15.2-33.7-19
	c-1.5-4.3-1.4-7.9,1-10.2C123.7,64.8,140.3,58.1,146.2,62.9z M162.2,103.2c0,0,11.7-19.6,22-25.5c10.9-6.3,11.9-0.3,9.8,4.1
	c-0.4,0.8-0.9,1.7-1.6,2.6c-13,4.8-23,12.6-29.4,18.8L162.2,103.2z M90.2,106.2h36.3c-7.9-4.2-16.8-8.2-24-9
	C86.9,95.5,86.6,101.6,90.2,106.2z M193.6,106.2c7.4-3.5,15.4-6.5,22-7c12.9-1,15.2,3,13.5,7H193.6z"/>
<g>
	<path class="st7" d="M74.3,165.2h170.4v-8.5H74.3V165.2z"/>
</g>
<path class="st6" d="M117.1,80.3c12,3.1,21.8,9,29.2,15c-4.2-7.6-9.4-15.3-14.9-19.7c-13.9-11.3-16.6-3.2-14.8,3.4
	C116.7,79.4,116.9,79.8,117.1,80.3z"/>
</svg>
