<?xml version="1.0" encoding="utf-8"?>
<!-- Generator: Adobe Illustrator 28.1.0, SVG Export Plug-In . SVG Version: 6.00 Build 0)  -->
<svg version="1.1" id="Layer_1" xmlns="http://www.w3.org/2000/svg" xmlns:xlink="http://www.w3.org/1999/xlink" x="0px" y="0px"
	 viewBox="0 0 320 320" style="enable-background:new 0 0 320 320;" xml:space="preserve">
<style type="text/css">
	.st0{fill:#6A298A;}
	.st1{fill:#8533AD;}
	.st2{fill:#DDDDDD;}
	.st3{fill:#791FA5;}
	.st4{fill:#660099;}
	.st5{clip-path:url(#SVGID_00000044857823459192336270000007996719725794882984_);fill:#FFFFFF;}
	.st6{clip-path:url(#SVGID_00000027582670377376045930000009454820277888789688_);fill:#FFFFFF;}
	.st7{clip-path:url(#SVGID_00000112612944599450382450000000755486720062782904_);fill:#FFFFFF;}
</style>
<g>
	<path class="st0" d="M131.8,5.3H34.4C20.2,5.3,8.6,16.9,8.6,31.1l0.1,256.1c0,14.2,11.6,25.8,25.8,25.8h97.4
		c14.2,0,25.8-11.6,25.8-25.8l-0.1-256.1C157.6,16.8,146.1,5.3,131.8,5.3z"/>
	<path class="st1" d="M141.6,5H44.2C30,5.1,18.4,16.6,18.4,30.9L18.5,287c0,14.2,11.6,25.8,25.8,25.8h97.4
		c14.2,0,25.8-11.6,25.8-25.8l-0.1-256.1C167.4,16.6,155.8,5,141.6,5z"/>
	<g>
		<path class="st2" d="M139.7,16.5h-9.5c-1.6,0-2.8,1.3-2.8,2.8v4c0,3.1-2.5,5.5-5.5,5.5H63.8c-3.1,0-5.5-2.5-5.5-5.5v-4
			c0-1.6-1.3-2.8-2.8-2.8H46c-10.5,0-19,8.5-19,19l0.1,246.6c0,10.5,8.5,19,19,19H140c10.5,0,19-8.5,19-19l-0.1-246.6
			C158.7,25,150.2,16.5,139.7,16.5z"/>
		<path class="st3" d="M85.2,20.5h16.4c0.4,0,0.7-0.3,0.7-0.7c0-0.4-0.3-0.7-0.7-0.7H85.2c-0.4,0-0.7,0.3-0.7,0.7
			S84.8,20.5,85.2,20.5z"/>
		<path class="st3" d="M105.2,20.5h2c0.4,0,0.7-0.3,0.7-0.7c0-0.4-0.3-0.7-0.7-0.7h-2c-0.4,0-0.7,0.3-0.7,0.7S104.8,20.5,105.2,20.5
			z"/>
	</g>
</g>
<g>
	<path class="st1" d="M285.5,216.1H19v-125h280.7c7.5,0,13.2,7,12.2,14.6l-14.2,99.4C296.7,211.5,291.6,216.1,285.5,216.1z"/>
</g>
<g>
	<path class="st1" d="M126.7,80.8h106.5c0.8,0,1.5-0.7,1.5-1.5s-0.7-1.5-1.5-1.5H126.7c-0.8,0-1.5,0.7-1.5,1.5
		C125.2,80.1,125.7,80.8,126.7,80.8z"/>
</g>
<g>
	<path class="st1" d="M243.5,80.8h17c0.8,0,1.5-0.7,1.5-1.5s-0.7-1.5-1.5-1.5h-17c-0.8,0-1.5,0.7-1.5,1.5
		C242,80.1,242.7,80.8,243.5,80.8z"/>
</g>
<g>
	<path class="st1" d="M204.1,229.4h106.5c0.8,0,1.5-0.7,1.5-1.5s-0.7-1.5-1.5-1.5H204.1c-0.8,0-1.5,0.7-1.5,1.5
		S203.3,229.4,204.1,229.4z"/>
</g>
<g>
	<path class="st1" d="M142.7,243.2h106.5c0.8,0,1.5-0.7,1.5-1.5s-0.7-1.5-1.5-1.5H142.7c-0.8,0-1.5,0.7-1.5,1.5
		S141.9,243.2,142.7,243.2z"/>
</g>
<g>
	<path class="st4" d="M114.3,146.1c-0.8-3.2-3.9-5.3-7.2-4.6c-0.2,0-12.3,2.9-12.9,3.1c-1.9,0.4-4,1-4.6-0.8
		c-0.7-1.8,0.5-2.5,2.2-3.6c0.9-0.6,1.9-1.3,3.2-2.5c3.5-3.5,4.7-8.5,4.7-11.7c0-9.2-7.7-16.6-16.8-16.6s-16.8,7.4-16.8,16.6
		c0,3.2,1.1,8.2,4.7,11.7c1.2,1.2,2.3,2,3.2,2.5c1.7,1.1,2.9,1.8,2.2,3.6c-0.7,1.8-2.7,1.2-4.6,0.8c-0.6-0.1-12.8-3.1-12.9-3.1
		c-3.3-0.6-6.4,1.4-7.2,4.6l-1,4.1c-0.8,3.2,1.1,6.5,4.3,7.4c0.1,0.1,13.4,3.3,13.4,3.3c2.5,0.6,4,1.9,4,4.3c0,1.1-0.6,2.3-1.4,3.2
		c0,0-14.4,17.9-14.5,18c-2,2.7-1.5,6.4,1.1,8.5c0,0,3.3,2.6,3.3,2.7c2.6,2.1,6.3,1.8,8.5-0.7c0.1-0.1,9.1-11.1,10-12.3
		c1-1.2,2.2-2.9,3.8-2.9c1.7,0,2.9,1.8,3.8,2.9c1,1.2,9.9,12.2,10,12.3c2.2,2.5,6,2.7,8.5,0.7l3.3-2.7c2.6-2.1,3.1-5.8,1.1-8.5
		c-0.1-0.1-14.5-18-14.5-18c-0.8-1-1.4-2.2-1.4-3.2c0-2.4,1.5-3.7,4-4.3c0,0,13.3-3.2,13.4-3.3c3.2-0.9,5.1-4.2,4.3-7.4
		C115.2,150.1,114.3,146.1,114.3,146.1"/>
	<path class="st4" d="M118.9,186.7l9.7-9.8c4.8,6.1,10.8,9.9,18.9,9.9c9.3,0,14.7-4.7,14.7-13.4c0-8.8-5.4-13.5-13.5-13.5
		c-4.2,0-8.1,1.3-11.2,3.6h-10.6c-1.3,0-1.7-0.5-1.7-1.7v-42.5h46.7V132h-33.4v18.2c0,0.9,0.3,1.3,0.9,1.3c0.4,0,0.8-0.2,1.3-0.5
		c2.4-1.5,6.5-3,12.4-3c12.7,0,23.3,7.9,23.3,25.4c0,16-10.3,25.6-28.8,25.6C134.5,198.9,125,194.3,118.9,186.7"/>
	<path class="st4" d="M180.9,158.5c0-25.9,16.2-40.5,38.9-40.5c19.8,0,28.6,10.4,32.3,18.9l-12.9,5.8c-2.6-6.5-8.3-12.6-19.4-12.6
		c-16.3,0-24.3,11.1-24.3,28.3c0,18.7,9.1,28.3,23.7,28.3c14.6,0,20.5-7.8,20.5-19.6v-1.3h-19.3v-12.7h30c2.5,0,3.4,0.9,3.4,3.4v8.3
		c0,19.5-10.2,34-35.2,34C197.1,199,180.9,185.2,180.9,158.5"/>
	<g>
		<g>
			<defs>
				<rect id="SVGID_1_" x="52" y="102.9" width="203.9" height="89.8"/>
			</defs>
			<clipPath id="SVGID_00000154396960631663075890000012034006119963730830_">
				<use xlink:href="#SVGID_1_"  style="overflow:visible;"/>
			</clipPath>
			<path style="clip-path:url(#SVGID_00000154396960631663075890000012034006119963730830_);fill:#FFFFFF;" d="M116.4,139.8
				c-0.8-3.2-3.9-5.3-7.2-4.6c-0.2,0-12.3,2.9-12.9,3.1c-1.9,0.4-4,1-4.6-0.8c-0.7-1.8,0.5-2.5,2.2-3.6c0.9-0.6,1.9-1.3,3.2-2.5
				c3.5-3.5,4.7-8.5,4.7-11.7c0-9.2-7.7-16.6-16.8-16.6s-16.8,7.4-16.8,16.6c0,3.2,1.1,8.2,4.7,11.7c1.2,1.2,2.3,2,3.2,2.5
				c1.7,1.1,2.9,1.8,2.2,3.6c-0.7,1.8-2.7,1.2-4.6,0.8c-0.6-0.1-12.8-3.1-12.9-3.1c-3.3-0.6-6.4,1.4-7.2,4.6l-1,4.1
				c-0.8,3.2,1.1,6.5,4.3,7.4c0.1,0.1,13.4,3.3,13.4,3.3c2.5,0.6,4,1.9,4,4.3c0,1.1-0.6,2.3-1.4,3.2c0,0-14.4,17.9-14.5,18
				c-2,2.7-1.5,6.4,1.1,8.5c0,0,3.3,2.6,3.3,2.7c2.6,2.1,6.3,1.8,8.5-0.7c0.1-0.1,9.1-11.1,10-12.3c1-1.2,2.2-2.9,3.8-2.9
				c1.7,0,2.9,1.8,3.8,2.9c1,1.2,9.9,12.2,10,12.3c2.2,2.5,6,2.7,8.5,0.7l3.3-2.7c2.6-2.1,3.1-5.8,1.1-8.5c-0.1-0.1-14.5-18-14.5-18
				c-0.8-1-1.4-2.2-1.4-3.2c0-2.4,1.5-3.7,4-4.3c0,0,13.3-3.2,13.4-3.3c3.2-0.9,5.1-4.2,4.3-7.4
				C117.3,143.9,116.4,139.8,116.4,139.8"/>
		</g>
		<g>
			<defs>
				<rect id="SVGID_00000032648486240706246390000002038804955732582529_" x="52" y="102.9" width="203.9" height="89.8"/>
			</defs>
			<clipPath id="SVGID_00000155831075900151033270000010719721481440376451_">
				<use xlink:href="#SVGID_00000032648486240706246390000002038804955732582529_"  style="overflow:visible;"/>
			</clipPath>
			<path style="clip-path:url(#SVGID_00000155831075900151033270000010719721481440376451_);fill:#FFFFFF;" d="M121,180.4l9.7-9.8
				c4.8,6.1,10.8,9.9,18.9,9.9c9.3,0,14.7-4.7,14.7-13.4c0-8.8-5.4-13.5-13.5-13.5c-4.2,0-8.1,1.3-11.2,3.6H129
				c-1.3,0-1.7-0.5-1.7-1.7V113H174v12.7h-33.4v18.2c0,0.9,0.3,1.3,0.9,1.3c0.4,0,0.8-0.2,1.3-0.5c2.4-1.5,6.5-3,12.4-3
				c12.7,0,23.3,7.9,23.3,25.4c0,16-10.3,25.6-28.8,25.6C136.6,192.7,127.1,188,121,180.4"/>
		</g>
		<g>
			<defs>
				<rect id="SVGID_00000142874028656695892360000003035985285842131589_" x="52" y="102.9" width="203.9" height="89.8"/>
			</defs>
			<clipPath id="SVGID_00000013896331528041073120000014223184511167705479_">
				<use xlink:href="#SVGID_00000142874028656695892360000003035985285842131589_"  style="overflow:visible;"/>
			</clipPath>
			<path style="clip-path:url(#SVGID_00000013896331528041073120000014223184511167705479_);fill:#FFFFFF;" d="M183,152.2
				c0-25.9,16.2-40.5,38.9-40.5c19.8,0,28.6,10.4,32.3,18.9l-12.9,5.8c-2.6-6.5-8.3-12.6-19.4-12.6c-16.3,0-24.3,11.1-24.3,28.3
				c0,18.7,9.1,28.3,23.7,28.3c14.6,0,20.5-7.8,20.5-19.6v-1.3h-19.3v-12.7h30c2.5,0,3.4,0.9,3.4,3.4v8.3c0,19.5-10.2,34-35.2,34
				C199.2,192.7,183,178.9,183,152.2"/>
		</g>
	</g>
</g>
</svg>
