<?xml version="1.0" encoding="utf-8"?>
<!-- Generator: Adobe Illustrator 28.1.0, SVG Export Plug-In . SVG Version: 6.00 Build 0)  -->
<svg version="1.1" id="Camada_1" xmlns="http://www.w3.org/2000/svg" xmlns:xlink="http://www.w3.org/1999/xlink" x="0px" y="0px"
	 viewBox="0 0 320 320" style="enable-background:new 0 0 320 320;" xml:space="preserve">
<style type="text/css">
	.st0{fill:#EF6497;}
	.st1{fill:#FFFFFF;}
	.st2{fill-rule:evenodd;clip-rule:evenodd;fill:#8533AD;}
	.st3{fill-rule:evenodd;clip-rule:evenodd;fill:#DDDDDD;}
	.st4{fill-rule:evenodd;clip-rule:evenodd;fill:#6A298A;}
	.st5{fill:#8533AD;}
</style>
<g id="Group" transform="translate(84.926045, 5.980707)">
	<circle id="Oval" class="st0" cx="117.2" cy="81.7" r="48.3"/>
	<path id="Path" class="st1" d="M109.1,73c-1.8,1-2.4,3.3-1.6,5.1c1.1,2.3,3.1,5.1,5.9,8.1c3.1,3.1,6.4,5.1,8.9,6.5
		c2,1,4.4,0.1,5.4-1.8c0.8-2,3.1-2.8,5-2l6.8,2.7c2,0.7,2.8,2.8,2.3,4.8c-0.6,1.6-1.4,3.3-2.7,4.7c-2.8,3-7.4,5.8-17.1,0.6
		c-9.8-5.2-18.4-14.6-23.8-23.8s-0.8-15.7,2.4-17.4c1.1-0.6,2.4-1,3.5-1.4c2-0.7,4.1,0.3,4.8,2.3l2.5,6.5c0.7,1.8,0,3.8-1.7,4.7
		L109.1,73z"/>
</g>
<path class="st2" d="M164.8,28.4c0-14.6-11.9-26.4-26.5-26.4L38.5,2c-1.3,0-2.5,0.1-3.7,0.3l-6.3,0C13.8,2.3,2,14.2,2,28.8
	l0.1,262.6c0,14.6,11.9,26.4,26.5,26.4h109.9c14.6,0,26.4-12.2,26.4-26.8L164.8,28.4z"/>
<path class="st3" d="M136.4,13.8l-9.8,0c-1.6,0-2.9,1.3-2.9,2.9l0,4.1c0,3.1-2.5,5.7-5.7,5.7l-59.6,0c-3.1,0-5.7-2.5-5.7-5.7l0-4.1
	c0-1.6-1.3-2.9-2.9-2.9l-9.8,0c-10.8,0-19.5,8.8-19.5,19.5l0.1,252.9c0,10.8,8.8,19.5,19.5,19.5l96.2,0c10.8,0,19.5-8.8,19.5-19.5
	l-0.1-252.9C155.9,22.5,147.2,13.8,136.4,13.8z"/>
<path class="st4" d="M12,28.5l0.1,262.6c0,14.6,11.8,26.4,26.5,26.4l-10,0.3C14,317.8,2.1,306,2.1,291.4L2,28.8
	C2,14.2,13.8,2.3,28.4,2.3l6.3,0C21.9,4.1,12,15.1,12,28.5z M103.1,16.4l-2.1,0c-0.4,0-0.8,0.3-0.8,0.8s0.3,0.8,0.8,0.8l2.1,0
	c0.4,0,0.8-0.3,0.8-0.8C103.9,16.7,103.5,16.4,103.1,16.4z M96.4,16.4l-16.8,0c-0.4,0-0.8,0.3-0.8,0.8c0,0.4,0.3,0.8,0.8,0.8l16.8,0
	c0.4,0,0.8-0.3,0.8-0.8C97.1,16.7,96.8,16.4,96.4,16.4z"/>
<g id="Group_00000144336289245203422690000015756943788384435089_" transform="translate(46.649518, 76.553055)">
	<path id="Path_00000078736281323087786900000004350478838512270978_" class="st5" d="M121.5,83l-33.7-4.4c-4.2-0.6-7.4,4.1-5.2,7.8
		L99.3,116L121.5,83z"/>
	<circle id="Oval_00000003081301892599729340000014662280884456308908_" class="st5" cx="164.1" cy="135.2" r="72.2"/>
	<g id="Path_00000146469473585305925970000007839408162324307386_" transform="translate(33.491961, 37.080386)">
		<path class="st1" d="M167.4,86.4H98.2c-1.6,0-2.8-1.3-2.8-2.8v-2.4c0-1.6,1.3-2.8,2.8-2.8h69.2c1.6,0,2.8,1.3,2.8,2.8v2.4
			C170.3,85.1,169,86.4,167.4,86.4z"/>
		<path class="st1" d="M167.4,105.6H98.2c-1.6,0-2.8-1.3-2.8-2.8v-2.4c0-1.6,1.3-2.8,2.8-2.8h69.2c1.6,0,2.8,1.3,2.8,2.8v2.4
			C170.3,104.4,169,105.6,167.4,105.6z"/>
		<path class="st1" d="M145.8,125H98.2c-1.6,0-2.8-1.3-2.8-2.8v-2.4c0-1.6,1.3-2.8,2.8-2.8h47.7c1.6,0,2.8,1.3,2.8,2.8v2.4
			C148.6,123.8,147.3,125,145.8,125z"/>
	</g>
</g>
</svg>
