<?xml version="1.0" encoding="utf-8"?>
<!-- Generator: Adobe Illustrator 28.1.0, SVG Export Plug-In . SVG Version: 6.00 Build 0)  -->
<svg version="1.1" id="Camada_1" xmlns="http://www.w3.org/2000/svg" xmlns:xlink="http://www.w3.org/1999/xlink" x="0px" y="0px"
	 viewBox="0 0 320 320" style="enable-background:new 0 0 320 320;" xml:space="preserve">
<style type="text/css">
	.st0{fill-rule:evenodd;clip-rule:evenodd;fill:#EF6497;}
	.st1{fill-rule:evenodd;clip-rule:evenodd;fill:#FFFFFF;}
	.st2{fill-rule:evenodd;clip-rule:evenodd;fill:#8533AD;}
	.st3{fill-rule:evenodd;clip-rule:evenodd;fill:#DDDDDD;}
	.st4{fill-rule:evenodd;clip-rule:evenodd;fill:#6A298A;}
</style>
<path class="st0" d="M258.2,296.5h-88.9c-11.2,0-20.3-9.1-20.3-20.3v-88.9c0-11.2,9.1-20.3,20.3-20.3h88.9
	c11.2,0,20.3,9.1,20.3,20.3v88.9C278.5,287.4,269.4,296.5,258.2,296.5z"/>
<path class="st1" d="M194.8,210.7v42c0,2.7,2.9,4.4,5.3,3.2l38.9-21c2.5-1.4,2.5-5,0-6.3l-38.9-21
	C197.7,206.3,194.8,208,194.8,210.7z"/>
<path class="st2" d="M162.8,28.4c0-14.6-11.9-26.4-26.5-26.4L36.5,2c-1.3,0-2.5,0.1-3.7,0.3l-6.3,0C11.8,2.3,0,14.2,0,28.8
	l0.1,262.6c0,14.6,11.9,26.4,26.5,26.4h109.9c14.6,0,26.4-12.2,26.4-26.8L162.8,28.4z"/>
<path class="st3" d="M134.4,13.8l-9.8,0c-1.6,0-2.9,1.3-2.9,2.9l0,4.1c0,3.1-2.5,5.7-5.7,5.7l-59.6,0c-3.1,0-5.7-2.5-5.7-5.7l0-4.1
	c0-1.6-1.3-2.9-2.9-2.9l-9.8,0c-10.8,0-19.5,8.8-19.5,19.5l0.1,252.9c0,10.8,8.8,19.5,19.5,19.5l96.2,0c10.8,0,19.5-8.8,19.5-19.5
	l-0.1-252.9C153.9,22.5,145.2,13.8,134.4,13.8z"/>
<path class="st4" d="M10,28.5l0.1,262.6c0,14.6,11.8,26.4,26.5,26.4l-10,0.3C12,317.8,0.1,306,0.1,291.4L0,28.8
	C0,14.2,11.8,2.3,26.4,2.3l6.3,0C19.9,4.1,10,15.1,10,28.5z M101.1,16.4l-2.1,0c-0.4,0-0.8,0.3-0.8,0.8s0.3,0.8,0.8,0.8l2.1,0
	c0.4,0,0.8-0.3,0.8-0.8C101.9,16.7,101.5,16.4,101.1,16.4z M94.4,16.4l-16.8,0c-0.4,0-0.8,0.3-0.8,0.8c0,0.4,0.3,0.8,0.8,0.8l16.8,0
	c0.4,0,0.8-0.3,0.8-0.8C95.1,16.7,94.8,16.4,94.4,16.4z"/>
<path class="st2" d="M226.3,188.6h-104c-11.2,0-20.3-9.1-20.3-20.3v-104c0-11.2,9.1-20.3,20.3-20.3h104c11.2,0,20.3,9.1,20.3,20.3
	v104C246.6,179.5,237.5,188.6,226.3,188.6z"/>
<path class="st1" d="M148.3,90.8v55.7c-3-1.7-7.5-1.6-11.7,0.5c-5.6,3-8.4,8.8-6.2,12.9c2.2,4.2,8.6,5.1,14.2,2c4.3-2.3,7-6.2,7-9.8
	v-44.5c0-2.5,1.6-4.6,4.1-5.1l37.1-8.6c3.3-0.7,6.4,1.7,6.4,5.1v36.3c-3-1.7-7.5-1.6-11.7,0.5c-5.6,3-8.4,8.8-6.2,12.9
	c2.2,4.2,8.6,5.1,14.2,2c4.3-2.3,7-6.2,7-9.8v-59c0-3.3-3.1-5.8-6.2-5.1l-43.7,8.9C150.1,86.2,148.3,88.4,148.3,90.8z"/>
</svg>
